<svg width="20" height="20" viewBox="0 0 20 20" fill="none" xmlns="http://www.w3.org/2000/svg">
<circle cx="9.80726" cy="8.85512" r="5.51307" fill="#A4A4A4"/>
<path d="M15.32 7.673H15.068L14.0835 5.21574C13.9077 4.77884 13.6053 4.40444 13.2152 4.14062C12.8251 3.87679 12.365 3.73558 11.8941 3.73509H7.16857C6.62143 3.73352 6.0907 3.9219 5.66698 4.26806C5.24326 4.61422 4.95281 5.0967 4.8452 5.63316L4.43566 7.673H4.2939C3.66726 7.673 3.06629 7.92193 2.62318 8.36503C2.18008 8.80813 1.93115 9.40911 1.93115 10.0357V12.3985C1.93115 12.6074 2.01413 12.8077 2.16183 12.9554C2.30953 13.1031 2.50985 13.1861 2.71873 13.1861H3.50632C3.50632 13.8127 3.75525 14.4137 4.19835 14.8568C4.64145 15.2999 5.24242 15.5488 5.86906 15.5488C6.4957 15.5488 7.09667 15.2999 7.53977 14.8568C7.98288 14.4137 8.23181 13.8127 8.23181 13.1861H11.3821C11.3821 13.8127 11.6311 14.4137 12.0742 14.8568C12.5173 15.2999 13.1182 15.5488 13.7449 15.5488C14.3715 15.5488 14.9725 15.2999 15.4156 14.8568C15.8587 14.4137 16.1076 13.8127 16.1076 13.1861H16.8952C17.1041 13.1861 17.3044 13.1031 17.4521 12.9554C17.5998 12.8077 17.6828 12.6074 17.6828 12.3985V10.0357C17.6828 9.40911 17.4339 8.80813 16.9908 8.36503C16.5477 7.92193 15.9467 7.673 15.32 7.673ZM10.5946 5.31025H11.8941C12.0505 5.31167 12.2029 5.35961 12.3319 5.44798C12.461 5.53635 12.5608 5.66113 12.6186 5.80643L13.3668 7.673H10.5946V5.31025ZM6.38886 5.94032C6.42569 5.75975 6.52466 5.5978 6.66857 5.48268C6.81247 5.36755 6.9922 5.30654 7.17645 5.31025H9.01939V7.673H6.04233L6.38886 5.94032ZM5.86906 13.9737C5.71329 13.9737 5.56102 13.9275 5.4315 13.8409C5.30199 13.7544 5.20104 13.6314 5.14143 13.4875C5.08182 13.3436 5.06622 13.1852 5.09661 13.0324C5.127 12.8796 5.20201 12.7393 5.31216 12.6292C5.4223 12.519 5.56264 12.444 5.71541 12.4136C5.86819 12.3832 6.02654 12.3988 6.17046 12.4584C6.31437 12.5181 6.43737 12.619 6.52391 12.7485C6.61045 12.878 6.65664 13.0303 6.65664 13.1861C6.65664 13.395 6.57367 13.5953 6.42597 13.743C6.27827 13.8907 6.07794 13.9737 5.86906 13.9737ZM13.7449 13.9737C13.5891 13.9737 13.4368 13.9275 13.3073 13.8409C13.1778 13.7544 13.0769 13.6314 13.0172 13.4875C12.9576 13.3436 12.942 13.1852 12.9724 13.0324C13.0028 12.8796 13.0778 12.7393 13.188 12.6292C13.2981 12.519 13.4385 12.444 13.5912 12.4136C13.744 12.3832 13.9024 12.3988 14.0463 12.4584C14.1902 12.5181 14.3132 12.619 14.3997 12.7485C14.4863 12.878 14.5325 13.0303 14.5325 13.1861C14.5325 13.395 14.4495 13.5953 14.3018 13.743C14.1541 13.8907 13.9538 13.9737 13.7449 13.9737ZM16.1076 11.6109H15.4933C15.2719 11.3673 15.0019 11.1726 14.7008 11.0394C14.3997 10.9062 14.0741 10.8374 13.7449 10.8374C13.4156 10.8374 13.09 10.9062 12.7889 11.0394C12.4878 11.1726 12.2179 11.3673 11.9964 11.6109H7.61749C7.39604 11.3673 7.12611 11.1726 6.82502 11.0394C6.52392 10.9062 6.19831 10.8374 5.86906 10.8374C5.53981 10.8374 5.2142 10.9062 4.91311 11.0394C4.61201 11.1726 4.34208 11.3673 4.12063 11.6109H3.50632V10.0357C3.50632 9.82687 3.58929 9.62654 3.73699 9.47884C3.88469 9.33114 4.08502 9.24816 4.2939 9.24816H15.32C15.5289 9.24816 15.7292 9.33114 15.8769 9.47884C16.0246 9.62654 16.1076 9.82687 16.1076 10.0357V11.6109Z" fill="#0B0A0A"/>
</svg>
