<svg width="20" height="20" viewBox="0 0 20 20" fill="none" xmlns="http://www.w3.org/2000/svg">
<rect x="3.43848" y="4.12899" width="13.3889" height="13.3889" fill="#D6E1FF"/>
<path d="M8.16394 10.4316H2.65086C2.44198 10.4316 2.24166 10.5145 2.09396 10.6622C1.94626 10.8099 1.86328 11.0103 1.86328 11.2191V16.7322C1.86328 16.9411 1.94626 17.1414 2.09396 17.2891C2.24166 17.4368 2.44198 17.5198 2.65086 17.5198H8.16394C8.37282 17.5198 8.57314 17.4368 8.72084 17.2891C8.86854 17.1414 8.95152 16.9411 8.95152 16.7322V11.2191C8.95152 11.0103 8.86854 10.8099 8.72084 10.6622C8.57314 10.5145 8.37282 10.4316 8.16394 10.4316ZM7.37635 15.9446H3.43844V12.0067H7.37635V15.9446ZM16.8273 1.76815H11.3143C11.1054 1.76815 10.9051 1.85113 10.7574 1.99883C10.6097 2.14653 10.5267 2.34685 10.5267 2.55573V8.0688C10.5267 8.27768 10.6097 8.47801 10.7574 8.62571C10.9051 8.77341 11.1054 8.85639 11.3143 8.85639H16.8273C17.0362 8.85639 17.2365 8.77341 17.3842 8.62571C17.5319 8.47801 17.6149 8.27768 17.6149 8.0688V2.55573C17.6149 2.34685 17.5319 2.14653 17.3842 1.99883C17.2365 1.85113 17.0362 1.76815 16.8273 1.76815ZM16.0398 7.28122H12.1018V3.34331H16.0398V7.28122ZM16.8273 10.4316H11.3143C11.1054 10.4316 10.9051 10.5145 10.7574 10.6622C10.6097 10.8099 10.5267 11.0103 10.5267 11.2191V16.7322C10.5267 16.9411 10.6097 17.1414 10.7574 17.2891C10.9051 17.4368 11.1054 17.5198 11.3143 17.5198H16.8273C17.0362 17.5198 17.2365 17.4368 17.3842 17.2891C17.5319 17.1414 17.6149 16.9411 17.6149 16.7322V11.2191C17.6149 11.0103 17.5319 10.8099 17.3842 10.6622C17.2365 10.5145 17.0362 10.4316 16.8273 10.4316ZM16.0398 15.9446H12.1018V12.0067H16.0398V15.9446ZM8.16394 1.76815H2.65086C2.44198 1.76815 2.24166 1.85113 2.09396 1.99883C1.94626 2.14653 1.86328 2.34685 1.86328 2.55573V8.0688C1.86328 8.27768 1.94626 8.47801 2.09396 8.62571C2.24166 8.77341 2.44198 8.85639 2.65086 8.85639H8.16394C8.37282 8.85639 8.57314 8.77341 8.72084 8.62571C8.86854 8.47801 8.95152 8.27768 8.95152 8.0688V2.55573C8.95152 2.34685 8.86854 2.14653 8.72084 1.99883C8.57314 1.85113 8.37282 1.76815 8.16394 1.76815ZM7.37635 7.28122H3.43844V3.34331H7.37635V7.28122Z" fill="black"/>
</svg>
