<svg width="20" height="20" viewBox="0 0 20 20" fill="none" xmlns="http://www.w3.org/2000/svg">
<rect x="3.14966" y="4.12899" width="13.3889" height="13.3889" fill="#D6FFDC"/>
<path d="M16.0137 6.49227L11.2882 2.34958C10.855 1.96213 10.2942 1.74792 9.71307 1.74792C9.13189 1.74792 8.57109 1.96213 8.1379 2.34958L3.41241 6.49227C3.16225 6.716 2.96262 6.99046 2.82682 7.29737C2.69102 7.60428 2.62216 7.9366 2.62483 8.2722V15.1557C2.62483 15.7823 2.87376 16.3833 3.31686 16.8264C3.75996 17.2695 4.36094 17.5184 4.98758 17.5184H14.4386C15.0652 17.5184 15.6662 17.2695 16.1093 16.8264C16.5524 16.3833 16.8013 15.7823 16.8013 15.1557V8.26432C16.8029 7.93005 16.7335 7.59924 16.5977 7.29377C16.4619 6.9883 16.2629 6.71512 16.0137 6.49227ZM11.2882 15.9432H8.1379V12.0053C8.1379 11.7965 8.22088 11.5961 8.36858 11.4484C8.51628 11.3007 8.71661 11.2178 8.92549 11.2178H10.5006C10.7095 11.2178 10.9099 11.3007 11.0576 11.4484C11.2053 11.5961 11.2882 11.7965 11.2882 12.0053V15.9432ZM15.2261 15.1557C15.2261 15.3645 15.1432 15.5649 14.9955 15.7126C14.8478 15.8603 14.6474 15.9432 14.4386 15.9432H12.8634V12.0053C12.8634 11.3787 12.6145 10.7777 12.1714 10.3346C11.7283 9.89152 11.1273 9.64259 10.5006 9.64259H8.92549C8.29885 9.64259 7.69787 9.89152 7.25477 10.3346C6.81167 10.7777 6.56274 11.3787 6.56274 12.0053V15.9432H4.98758C4.7787 15.9432 4.57837 15.8603 4.43067 15.7126C4.28297 15.5649 4.19999 15.3645 4.19999 15.1557V8.26432C4.20014 8.1525 4.22409 8.04199 4.27026 7.94014C4.31643 7.83829 4.38376 7.74744 4.46777 7.67364L9.19326 3.53883C9.33699 3.41257 9.52176 3.34293 9.71307 3.34293C9.90438 3.34293 10.0891 3.41257 10.2329 3.53883L14.9584 7.67364C15.0424 7.74744 15.1097 7.83829 15.1559 7.94014C15.202 8.04199 15.226 8.1525 15.2261 8.26432V15.1557Z" fill="black"/>
</svg>
