<svg width="20" height="20" viewBox="0 0 20 20" fill="none" xmlns="http://www.w3.org/2000/svg">
<path d="M17.2182 7.04305C17.2182 7.04305 17.2182 7.04305 17.2182 7.00367C16.6633 5.48854 15.6564 4.18042 14.3337 3.25625C13.011 2.33209 11.4364 1.83648 9.82284 1.83648C8.20928 1.83648 6.63465 2.33209 5.31197 3.25625C3.98929 4.18042 2.98237 5.48854 2.42744 7.00367C2.42744 7.00367 2.42744 7.00367 2.42744 7.04305C1.80771 8.75281 1.80771 10.6258 2.42744 12.3356C2.42744 12.3356 2.42744 12.3356 2.42744 12.375C2.98237 13.8901 3.98929 15.1982 5.31197 16.1224C6.63465 17.0466 8.20928 17.5422 9.82284 17.5422C11.4364 17.5422 13.011 17.0466 14.3337 16.1224C15.6564 15.1982 16.6633 13.8901 17.2182 12.375C17.2182 12.375 17.2182 12.375 17.2182 12.3356C17.838 10.6258 17.838 8.75281 17.2182 7.04305ZM3.7112 11.2645C3.43809 10.2321 3.43809 9.14652 3.7112 8.11417H5.1761C5.05012 9.1605 5.05012 10.2182 5.1761 11.2645H3.7112ZM4.35702 12.8397H5.45963C5.64449 13.5421 5.90872 14.2211 6.24722 14.8637C5.47483 14.3376 4.82917 13.6462 4.35702 12.8397ZM5.45963 6.539H4.35702C4.82238 5.73495 5.45978 5.04375 6.22359 4.51492C5.89324 5.15856 5.63695 5.8376 5.45963 6.539ZM9.0195 15.7537C8.05217 15.0438 7.37279 14.0094 7.10568 12.8397H9.0195V15.7537ZM9.0195 11.2645H6.76702C6.62005 10.2195 6.62005 9.15913 6.76702 8.11417H9.0195V11.2645ZM9.0195 6.539H7.10568C7.37279 5.36926 8.05217 4.33481 9.0195 3.62495V6.539ZM15.2572 6.539H14.1545C13.9697 5.8366 13.7055 5.15754 13.367 4.51492C14.1393 5.04108 14.785 5.73247 15.2572 6.539ZM10.5947 3.62495C11.562 4.33481 12.2414 5.36926 12.5085 6.539H10.5947V3.62495ZM10.5947 15.7537V12.8397H12.5085C12.2414 14.0094 11.562 15.0438 10.5947 15.7537ZM12.8472 11.2645H10.5947V8.11417H12.8472C12.9941 9.15913 12.9941 10.2195 12.8472 11.2645ZM13.3906 14.8637C13.7291 14.2211 13.9933 13.5421 14.1782 12.8397H15.2808C14.8086 13.6462 14.163 14.3376 13.3906 14.8637ZM15.903 11.2645H14.4381C14.5021 10.7419 14.5337 10.2158 14.5326 9.68933C14.5334 9.16283 14.5019 8.63678 14.4381 8.11417H15.903C16.1761 9.14652 16.1761 10.2321 15.903 11.2645Z" fill="#0B0A0A"/>
</svg>
