<svg width="20" height="20" viewBox="0 0 20 20" fill="none" xmlns="http://www.w3.org/2000/svg">
<rect x="3.79443" y="4.12899" width="13.3889" height="13.3889" fill="#BCE2FE"/>
<path d="M17.4874 9.64246C17.8795 9.21115 18.0983 8.65015 18.1017 8.06729C18.1017 7.44065 17.8528 6.83968 17.4097 6.39658C16.9666 5.95348 16.3656 5.70455 15.739 5.70455H11.6593C11.7851 5.3487 11.8239 4.96789 11.7723 4.594C11.7207 4.22011 11.5803 3.86402 11.3628 3.55554C11.1453 3.24706 10.8571 2.99517 10.5223 2.82096C10.1875 2.64674 9.81577 2.55528 9.43833 2.55422H4.71284C4.0862 2.55422 3.48523 2.80315 3.04213 3.24625C2.59903 3.68935 2.3501 4.29033 2.3501 4.91696C2.35357 5.49982 2.57236 6.06082 2.96441 6.49213C2.57696 6.92532 2.36275 7.48611 2.36275 8.06729C2.36275 8.64847 2.57696 9.20927 2.96441 9.64246C2.57696 10.0756 2.36275 10.6364 2.36275 11.2176C2.36275 11.7988 2.57696 12.3596 2.96441 12.7928C2.57236 13.2241 2.35357 13.7851 2.3501 14.3679C2.3501 14.9946 2.59903 15.5956 3.04213 16.0387C3.48523 16.4818 4.0862 16.7307 4.71284 16.7307H15.739C16.194 16.7283 16.6387 16.5945 17.0195 16.3454C17.4003 16.0964 17.7012 15.7427 17.8858 15.3268C18.0705 14.9109 18.1311 14.4505 18.0604 14.001C17.9898 13.5515 17.7908 13.1319 17.4874 12.7928C17.8749 12.3596 18.0891 11.7988 18.0891 11.2176C18.0891 10.6364 17.8749 10.0756 17.4874 9.64246ZM9.43833 15.1555H4.71284C4.50396 15.1555 4.30364 15.0726 4.15594 14.9249C4.00824 14.7772 3.92526 14.5768 3.92526 14.3679C3.92526 14.1591 4.00824 13.9587 4.15594 13.811C4.30364 13.6633 4.50396 13.5804 4.71284 13.5804H9.43833C9.64721 13.5804 9.84754 13.6633 9.99524 13.811C10.1429 13.9587 10.2259 14.1591 10.2259 14.3679C10.2259 14.5768 10.1429 14.7772 9.99524 14.9249C9.84754 15.0726 9.64721 15.1555 9.43833 15.1555ZM9.43833 12.0052H4.71284C4.50396 12.0052 4.30364 11.9222 4.15594 11.7745C4.00824 11.6268 3.92526 11.4265 3.92526 11.2176C3.92526 11.0087 4.00824 10.8084 4.15594 10.6607C4.30364 10.513 4.50396 10.43 4.71284 10.43H9.43833C9.64721 10.43 9.84754 10.513 9.99524 10.6607C10.1429 10.8084 10.2259 11.0087 10.2259 11.2176C10.2259 11.4265 10.1429 11.6268 9.99524 11.7745C9.84754 11.9222 9.64721 12.0052 9.43833 12.0052ZM9.43833 8.85487H4.71284C4.50396 8.85487 4.30364 8.7719 4.15594 8.6242C4.00824 8.4765 3.92526 8.27617 3.92526 8.06729C3.92526 7.85841 4.00824 7.65809 4.15594 7.51039C4.30364 7.36269 4.50396 7.27971 4.71284 7.27971H9.43833C9.64721 7.27971 9.84754 7.36269 9.99524 7.51039C10.1429 7.65809 10.2259 7.85841 10.2259 8.06729C10.2259 8.27617 10.1429 8.4765 9.99524 8.6242C9.84754 8.7719 9.64721 8.85487 9.43833 8.85487ZM9.43833 5.70455H4.71284C4.50396 5.70455 4.30364 5.62157 4.15594 5.47387C4.00824 5.32617 3.92526 5.12584 3.92526 4.91696C3.92526 4.70808 4.00824 4.50776 4.15594 4.36006C4.30364 4.21236 4.50396 4.12938 4.71284 4.12938H9.43833C9.64721 4.12938 9.84754 4.21236 9.99524 4.36006C10.1429 4.50776 10.2259 4.70808 10.2259 4.91696C10.2259 5.12584 10.1429 5.32617 9.99524 5.47387C9.84754 5.62157 9.64721 5.70455 9.43833 5.70455ZM16.2824 14.9271C16.2126 15.0008 16.1282 15.0591 16.0347 15.0984C15.9411 15.1377 15.8404 15.1572 15.739 15.1555H11.6593C11.8482 14.6475 11.8482 14.0884 11.6593 13.5804H15.739C15.9479 13.5804 16.1482 13.6633 16.2959 13.811C16.4436 13.9587 16.5266 14.1591 16.5266 14.3679C16.5251 14.4727 16.5028 14.5761 16.4608 14.6721C16.4189 14.7682 16.3583 14.8548 16.2824 14.9271ZM16.2824 11.7768C16.2126 11.8504 16.1282 11.9088 16.0347 11.9481C15.9411 11.9874 15.8404 12.0069 15.739 12.0052H11.6593C11.8482 11.4971 11.8482 10.9381 11.6593 10.43H15.739C15.9479 10.43 16.1482 10.513 16.2959 10.6607C16.4436 10.8084 16.5266 11.0087 16.5266 11.2176C16.5251 11.3224 16.5028 11.4258 16.4608 11.5218C16.4189 11.6178 16.3583 11.7045 16.2824 11.7768ZM16.2824 8.62648C16.2126 8.70011 16.1282 8.75844 16.0347 8.79776C15.9411 8.83707 15.8404 8.85652 15.739 8.85487H11.6593C11.8482 8.3468 11.8482 7.78778 11.6593 7.27971H15.739C15.9479 7.27971 16.1482 7.36269 16.2959 7.51039C16.4436 7.65809 16.5266 7.85841 16.5266 8.06729C16.5251 8.17205 16.5028 8.27547 16.4608 8.37149C16.4189 8.46751 16.3583 8.55419 16.2824 8.62648Z" fill="black"/>
</svg>
