<svg width="20" height="20" viewBox="0 0 20 20" fill="none" xmlns="http://www.w3.org/2000/svg">
<path d="M16.9797 2.58329C16.6788 2.27657 16.2972 2.06129 15.8791 1.96234C15.461 1.86338 15.0234 1.8848 14.6169 2.02411L3.47264 5.74937C3.02318 5.89649 2.63047 6.1795 2.34873 6.55935C2.06698 6.93919 1.91009 7.39712 1.89972 7.86994C1.88935 8.34275 2.026 8.80712 2.29082 9.19896C2.55564 9.59079 2.93556 9.89075 3.37813 10.0574L7.50506 11.6326C7.59904 11.6685 7.6846 11.7235 7.75641 11.7939C7.82823 11.8644 7.88476 11.9489 7.92248 12.0421L9.49764 16.177C9.65798 16.6133 9.94894 16.9895 10.3309 17.2545C10.7128 17.5195 11.1672 17.6602 11.632 17.6576H11.6871C12.1605 17.649 12.6193 17.4925 12.9992 17.21C13.3791 16.9275 13.6611 16.5333 13.8057 16.0824L17.531 4.92241C17.6665 4.5199 17.6866 4.08752 17.5892 3.67416C17.4918 3.26079 17.2806 2.88293 16.9797 2.58329ZM16.074 4.42623L12.3093 15.5941C12.2656 15.7355 12.1778 15.8591 12.0588 15.947C11.9397 16.0349 11.7957 16.0823 11.6477 16.0824C11.5007 16.0849 11.3563 16.0424 11.2339 15.9608C11.1115 15.8793 11.0169 15.7623 10.9625 15.6256L9.38738 11.4908C9.27319 11.1904 9.09707 10.9173 8.87048 10.6894C8.64388 10.4614 8.37188 10.2837 8.07212 10.1677L3.93732 8.59254C3.79783 8.54143 3.67793 8.44778 3.59455 8.32483C3.51117 8.20188 3.46852 8.05584 3.47264 7.90734C3.47276 7.75939 3.52022 7.61536 3.60809 7.49632C3.69595 7.37729 3.8196 7.28949 3.96094 7.24577L15.1289 3.52051C15.2571 3.46825 15.3977 3.45425 15.5337 3.48021C15.6697 3.50616 15.7953 3.57095 15.8952 3.66676C15.9952 3.76256 16.0653 3.88526 16.097 4.02004C16.1287 4.15482 16.1207 4.2959 16.074 4.42623Z" fill="white"/>
</svg>
