<svg width="20" height="20" viewBox="0 0 20 20" fill="none" xmlns="http://www.w3.org/2000/svg">
<g clip-path="url(#clip0_1_2614)">
<path d="M1.43188 7.71963L13.8363 0.557936L13.8363 14.8813L1.43188 7.71963Z" fill="#FFF2CF"/>
<path d="M16.4243 7.01125C16.3656 6.87635 16.2703 6.76058 16.1492 6.67706C16.0281 6.59354 15.8861 6.54561 15.7391 6.5387H12.132L13.1322 2.80556C13.1641 2.68874 13.1686 2.56615 13.1453 2.44732C13.1221 2.32848 13.0718 2.2166 12.9983 2.12036C12.925 2.02505 12.8307 1.94782 12.7229 1.89457C12.615 1.84133 12.4964 1.8135 12.3761 1.81321H6.86306C6.68525 1.80712 6.51062 1.86141 6.36761 1.96724C6.2246 2.07306 6.12163 2.2242 6.07548 2.39602L3.96476 10.2718C3.9329 10.3887 3.92841 10.5112 3.95163 10.6301C3.97485 10.7489 4.02516 10.8608 4.09865 10.957C4.17282 11.0534 4.26831 11.1313 4.37762 11.1846C4.48694 11.2379 4.60711 11.2651 4.72871 11.2642H7.77665L6.35113 16.5725C6.30442 16.7437 6.31689 16.9256 6.38649 17.0888C6.4561 17.252 6.57878 17.3869 6.73465 17.4717C6.89052 17.5565 7.07045 17.5861 7.24527 17.5559C7.4201 17.5256 7.57959 17.4372 7.6979 17.3049L16.2825 7.85396C16.3848 7.74203 16.4525 7.60298 16.4777 7.4535C16.5028 7.30402 16.4843 7.15046 16.4243 7.01125ZM8.71388 13.8475L9.55659 10.6971C9.58844 10.5803 9.59294 10.4577 9.56972 10.3389C9.54649 10.2201 9.49619 10.1082 9.4227 10.0119C9.34933 9.91663 9.25511 9.83939 9.14725 9.78614C9.0394 9.7329 8.92079 9.70507 8.80051 9.70478H5.7762L7.46162 3.38837H11.3444L10.3442 7.12151C10.3121 7.24048 10.3083 7.36532 10.3332 7.486C10.3581 7.60668 10.411 7.71983 10.4876 7.81636C10.5642 7.91288 10.6624 7.99008 10.7743 8.04175C10.8862 8.09342 11.0086 8.11812 11.1318 8.11386H13.9434L8.71388 13.8475Z" fill="#0B0A0A"/>
</g>
<defs>
<clipPath id="clip0_1_2614">
<rect width="18.902" height="18.902" fill="white" transform="translate(0.775391 0.238364)"/>
</clipPath>
</defs>
</svg>
