<svg width="20" height="20" viewBox="0 0 20 20" fill="none" xmlns="http://www.w3.org/2000/svg">
<circle cx="10.3394" cy="10.1755" r="8.6634" stroke="white" stroke-width="1.57516"/>
<path d="M14.0147 9.6496H10.8644V6.49927C10.8644 6.36002 10.8091 6.22647 10.7106 6.12801C10.6122 6.02954 10.4786 5.97422 10.3394 5.97422C10.2001 5.97422 10.0666 6.02954 9.96808 6.12801C9.86962 6.22647 9.8143 6.36002 9.8143 6.49927V9.6496H6.66397C6.52472 9.6496 6.39117 9.70492 6.2927 9.80339C6.19423 9.90185 6.13892 10.0354 6.13892 10.1747C6.13892 10.3139 6.19423 10.4475 6.2927 10.5459C6.39117 10.6444 6.52472 10.6997 6.66397 10.6997H9.8143V13.85C9.8143 13.9893 9.86962 14.1228 9.96808 14.2213C10.0666 14.3198 10.2001 14.3751 10.3394 14.3751C10.4786 14.3751 10.6122 14.3198 10.7106 14.2213C10.8091 14.1228 10.8644 13.9893 10.8644 13.85V10.6997H14.0147C14.154 10.6997 14.2875 10.6444 14.386 10.5459C14.4845 10.4475 14.5398 10.3139 14.5398 10.1747C14.5398 10.0354 14.4845 9.90185 14.386 9.80339C14.2875 9.70492 14.154 9.6496 14.0147 9.6496Z" fill="white"/>
</svg>
