<svg width="20" height="20" viewBox="0 0 20 20" fill="none" xmlns="http://www.w3.org/2000/svg">
<rect x="2.65088" y="6.53883" width="14.1765" height="8.6634" fill="#FCB3C5"/>
<path d="M14.4646 4.96366H11.6372L13.4486 3.16009C13.5221 3.08666 13.5803 2.99948 13.6201 2.90354C13.6598 2.80759 13.6802 2.70476 13.6802 2.60091C13.6802 2.49706 13.6598 2.39423 13.6201 2.29828C13.5803 2.20234 13.5221 2.11516 13.4486 2.04173C13.3752 1.9683 13.288 1.91004 13.1921 1.8703C13.0961 1.83056 12.9933 1.81011 12.8894 1.81011C12.6797 1.81011 12.4786 1.89342 12.3303 2.04173L9.73912 4.60137L8.81765 3.02621C8.76593 2.93622 8.697 2.85731 8.61479 2.79397C8.53258 2.73063 8.4387 2.6841 8.3385 2.65704C8.23831 2.62998 8.13377 2.62292 8.03085 2.63626C7.92793 2.6496 7.82864 2.68309 7.73866 2.7348C7.64868 2.78651 7.56976 2.85544 7.50642 2.93765C7.44308 3.01987 7.39655 3.11375 7.36949 3.21394C7.34243 3.31414 7.33537 3.41868 7.34871 3.5216C7.36206 3.62452 7.39554 3.72381 7.44725 3.81379L8.16395 4.96366H5.01362C4.38699 4.96366 3.78601 5.21259 3.34291 5.65569C2.89981 6.09879 2.65088 6.69976 2.65088 7.3264V13.6271C2.65088 14.2537 2.89981 14.8547 3.34291 15.2978C3.78601 15.7409 4.38699 15.9898 5.01362 15.9898V16.7774C5.01362 16.9863 5.0966 17.1866 5.2443 17.3343C5.392 17.482 5.59233 17.565 5.80121 17.565C6.01009 17.565 6.21041 17.482 6.35811 17.3343C6.50581 17.1866 6.58879 16.9863 6.58879 16.7774V15.9898H12.8894V16.7774C12.8894 16.9863 12.9724 17.1866 13.1201 17.3343C13.2678 17.482 13.4681 17.565 13.677 17.565C13.8859 17.565 14.0862 17.482 14.2339 17.3343C14.3816 17.1866 14.4646 16.9863 14.4646 16.7774V15.9898C15.0912 15.9898 15.6922 15.7409 16.1353 15.2978C16.5784 14.8547 16.8274 14.2537 16.8274 13.6271V7.3264C16.8274 6.69976 16.5784 6.09879 16.1353 5.65569C15.6922 5.21259 15.0912 4.96366 14.4646 4.96366ZM15.2522 13.6271C15.2522 13.8359 15.1692 14.0363 15.0215 14.184C14.8738 14.3317 14.6735 14.4146 14.4646 14.4146H5.01362C4.80475 14.4146 4.60442 14.3317 4.45672 14.184C4.30902 14.0363 4.22604 13.8359 4.22604 13.6271V7.3264C4.22604 7.11752 4.30902 6.9172 4.45672 6.7695C4.60442 6.6218 4.80475 6.53882 5.01362 6.53882H14.4646C14.6735 6.53882 14.8738 6.6218 15.0215 6.7695C15.1692 6.9172 15.2522 7.11752 15.2522 7.3264V13.6271Z" fill="black"/>
</svg>
