<svg width="20" height="20" viewBox="0 0 20 20" fill="none" xmlns="http://www.w3.org/2000/svg">
<circle cx="9.45031" cy="9.68945" r="6.30066" fill="#BCE2FE"/>
<path d="M10.1542 1.94694C10.0239 1.85891 9.87034 1.81187 9.71314 1.81187C9.55593 1.81187 9.40233 1.85891 9.27209 1.94694C9.03581 2.10446 3.60938 5.88485 3.60938 11.4609C3.60938 13.0797 4.25245 14.6323 5.39712 15.7769C6.5418 16.9216 8.09432 17.5647 9.71314 17.5647C11.332 17.5647 12.8845 16.9216 14.0291 15.7769C15.1738 14.6323 15.8169 13.0797 15.8169 11.4609C15.8169 5.79034 10.3826 2.09658 10.1542 1.94694ZM9.71314 15.9895C8.51272 15.9874 7.36206 15.5097 6.51323 14.6608C5.66441 13.812 5.18662 12.6613 5.18454 11.4609C5.18454 7.52302 8.50026 4.55384 9.71314 3.58511C10.9339 4.53809 14.2417 7.52302 14.2417 11.4609C14.2396 12.6613 13.7619 13.812 12.913 14.6608C12.0642 15.5097 10.9136 15.9874 9.71314 15.9895Z" fill="#0B0A0A"/>
</svg>
