<svg width="20" height="20" viewBox="0 0 20 20" fill="none" xmlns="http://www.w3.org/2000/svg">
<path d="M10.2069 9.78176C9.73955 9.78176 9.28274 9.92034 8.89419 10.18C8.50563 10.4396 8.2028 10.8086 8.02396 11.2403C7.84513 11.6721 7.79834 12.1471 7.88951 12.6055C7.98068 13.0638 8.20571 13.4848 8.53614 13.8152C8.86658 14.1457 9.28758 14.3707 9.74591 14.4619C10.2042 14.553 10.6793 14.5062 11.111 14.3274C11.5428 14.1486 11.9118 13.8457 12.1714 13.4572C12.431 13.0686 12.5696 12.6118 12.5696 12.1445C12.5696 11.5179 12.3207 10.9169 11.8776 10.4738C11.4345 10.0307 10.8335 9.78176 10.2069 9.78176ZM10.2069 12.9321C10.0511 12.9321 9.89882 12.8859 9.7693 12.7994C9.63978 12.7128 9.53884 12.5898 9.47923 12.4459C9.41962 12.302 9.40402 12.1436 9.43441 11.9909C9.4648 11.8381 9.53981 11.6978 9.64995 11.5876C9.7601 11.4775 9.90043 11.4024 10.0532 11.3721C10.206 11.3417 10.3643 11.3573 10.5083 11.4169C10.6522 11.4765 10.7752 11.5774 10.8617 11.707C10.9482 11.8365 10.9944 11.9887 10.9944 12.1445C10.9944 12.3534 10.9115 12.5537 10.7638 12.7014C10.6161 12.8491 10.4157 12.9321 10.2069 12.9321ZM9.64767 7.9782C9.72258 8.0499 9.8109 8.10611 9.90758 8.14359C10.0019 8.18526 10.1038 8.20678 10.2069 8.20678C10.3099 8.20678 10.4119 8.18526 10.5061 8.14359C10.6028 8.10611 10.6911 8.0499 10.766 7.9782L12.5696 6.20614C12.7221 6.05366 12.8077 5.84685 12.8077 5.63121C12.8077 5.41556 12.7221 5.20875 12.5696 5.05627C12.4171 4.90379 12.2103 4.81813 11.9947 4.81813C11.779 4.81813 11.5722 4.90379 11.4197 5.05627L10.9944 5.52095V2.69353C10.9944 2.48465 10.9115 2.28432 10.7638 2.13662C10.6161 1.98892 10.4157 1.90594 10.2069 1.90594C9.99798 1.90594 9.79765 1.98892 9.64995 2.13662C9.50225 2.28432 9.41928 2.48465 9.41928 2.69353V5.52095L8.99398 5.05627C8.8415 4.90379 8.63469 4.81813 8.41905 4.81813C8.2034 4.81813 7.99659 4.90379 7.84411 5.05627C7.69163 5.20875 7.60597 5.41556 7.60597 5.63121C7.60597 5.84685 7.69163 6.05366 7.84411 6.20614L9.64767 7.9782ZM15.7199 12.1445C15.7199 11.9887 15.6737 11.8365 15.5872 11.707C15.5007 11.5774 15.3777 11.4765 15.2337 11.4169C15.0898 11.3573 14.9315 11.3417 14.7787 11.3721C14.6259 11.4024 14.4856 11.4775 14.3754 11.5876C14.2653 11.6978 14.1903 11.8381 14.1599 11.9909C14.1295 12.1436 14.1451 12.302 14.2047 12.4459C14.2643 12.5898 14.3653 12.7128 14.4948 12.7994C14.6243 12.8859 14.7766 12.9321 14.9323 12.9321C15.1412 12.9321 15.3416 12.8491 15.4893 12.7014C15.637 12.5537 15.7199 12.3534 15.7199 12.1445ZM16.5075 6.63144H14.1448C13.9359 6.63144 13.7356 6.71441 13.5879 6.86211C13.4402 7.00981 13.3572 7.21014 13.3572 7.41902C13.3572 7.6279 13.4402 7.82822 13.5879 7.97592C13.7356 8.12362 13.9359 8.2066 14.1448 8.2066H16.5075C16.7164 8.2066 16.9167 8.28958 17.0644 8.43728C17.2121 8.58498 17.2951 8.7853 17.2951 8.99418V15.2948C17.2951 15.5037 17.2121 15.704 17.0644 15.8517C16.9167 15.9994 16.7164 16.0824 16.5075 16.0824H3.9062C3.69732 16.0824 3.497 15.9994 3.3493 15.8517C3.2016 15.704 3.11862 15.5037 3.11862 15.2948V8.99418C3.11862 8.7853 3.2016 8.58498 3.3493 8.43728C3.497 8.28958 3.69732 8.2066 3.9062 8.2066H6.26895C6.47783 8.2066 6.67815 8.12362 6.82585 7.97592C6.97355 7.82822 7.05653 7.6279 7.05653 7.41902C7.05653 7.21014 6.97355 7.00981 6.82585 6.86211C6.67815 6.71441 6.47783 6.63144 6.26895 6.63144H3.9062C3.27956 6.63144 2.67859 6.88037 2.23549 7.32347C1.79239 7.76657 1.54346 8.36754 1.54346 8.99418V15.2948C1.54346 15.9215 1.79239 16.5224 2.23549 16.9656C2.67859 17.4087 3.27956 17.6576 3.9062 17.6576H16.5075C17.1342 17.6576 17.7351 17.4087 18.1782 16.9656C18.6213 16.5224 18.8703 15.9215 18.8703 15.2948V8.99418C18.8703 8.36754 18.6213 7.76657 18.1782 7.32347C17.7351 6.88037 17.1342 6.63144 16.5075 6.63144ZM4.69378 12.1445C4.69378 12.3003 4.73998 12.4525 4.82652 12.5821C4.91306 12.7116 5.03606 12.8125 5.17997 12.8721C5.32388 12.9318 5.48224 12.9473 5.63502 12.917C5.78779 12.8866 5.92813 12.8116 6.03827 12.7014C6.14842 12.5913 6.22343 12.4509 6.25382 12.2982C6.2842 12.1454 6.26861 11.987 6.209 11.8431C6.14939 11.6992 6.04844 11.5762 5.91892 11.4897C5.78941 11.4031 5.63714 11.3569 5.48137 11.3569C5.27249 11.3569 5.07216 11.4399 4.92446 11.5876C4.77676 11.7353 4.69378 11.9356 4.69378 12.1445Z" fill="white"/>
</svg>
